<mxfile host="app.diagrams.net" agent="Mozilla/5.0 (Windows NT 10.0; Win64; x64) AppleWebKit/537.36 (KHTML, like Gecko) Chrome/138.0.0.0 Safari/537.36" version="28.0.7">
  <diagram name="Page-1" id="0sGlkJgw7UqyJf9UXH5e">
    <mxGraphModel dx="1726" dy="472" grid="1" gridSize="10" guides="1" tooltips="1" connect="1" arrows="1" fold="1" page="1" pageScale="1" pageWidth="850" pageHeight="1100" math="0" shadow="0">
      <root>
        <mxCell id="0" />
        <mxCell id="1" parent="0" />
        <mxCell id="1EZGfPwogYZanTHr4nEx-1" value="User" style="rounded=1;arcSize=10;whiteSpace=wrap;html=1;align=center;" vertex="1" parent="1">
          <mxGeometry x="85" y="200" width="100" height="40" as="geometry" />
        </mxCell>
        <mxCell id="1EZGfPwogYZanTHr4nEx-2" value="Order" style="rounded=1;arcSize=10;whiteSpace=wrap;html=1;align=center;" vertex="1" parent="1">
          <mxGeometry x="399" y="199" width="100" height="40" as="geometry" />
        </mxCell>
        <mxCell id="1EZGfPwogYZanTHr4nEx-3" value="Driver" style="rounded=1;arcSize=10;whiteSpace=wrap;html=1;align=center;" vertex="1" parent="1">
          <mxGeometry x="688" y="200" width="100" height="40" as="geometry" />
        </mxCell>
        <mxCell id="1EZGfPwogYZanTHr4nEx-4" value="Status" style="rounded=1;arcSize=10;whiteSpace=wrap;html=1;align=center;" vertex="1" parent="1">
          <mxGeometry x="401" y="394" width="100" height="40" as="geometry" />
        </mxCell>
        <mxCell id="1EZGfPwogYZanTHr4nEx-5" value="Attribute" style="ellipse;whiteSpace=wrap;html=1;align=center;" vertex="1" parent="1">
          <mxGeometry x="-60" y="280" width="100" height="40" as="geometry" />
        </mxCell>
        <mxCell id="1EZGfPwogYZanTHr4nEx-9" value="" style="endArrow=none;html=1;rounded=0;entryX=0;entryY=0.5;entryDx=0;entryDy=0;exitX=1;exitY=0.5;exitDx=0;exitDy=0;" edge="1" parent="1" source="1EZGfPwogYZanTHr4nEx-1" target="1EZGfPwogYZanTHr4nEx-2">
          <mxGeometry relative="1" as="geometry">
            <mxPoint x="200" y="219" as="sourcePoint" />
            <mxPoint x="370" y="219.5" as="targetPoint" />
          </mxGeometry>
        </mxCell>
        <mxCell id="1EZGfPwogYZanTHr4nEx-10" value="N" style="resizable=0;html=1;whiteSpace=wrap;align=right;verticalAlign=bottom;" connectable="0" vertex="1" parent="1EZGfPwogYZanTHr4nEx-9">
          <mxGeometry x="1" relative="1" as="geometry" />
        </mxCell>
        <mxCell id="1EZGfPwogYZanTHr4nEx-11" value="1" style="text;html=1;align=center;verticalAlign=middle;resizable=0;points=[];autosize=1;strokeColor=none;fillColor=none;" vertex="1" parent="1">
          <mxGeometry x="178" y="196" width="30" height="30" as="geometry" />
        </mxCell>
        <mxCell id="1EZGfPwogYZanTHr4nEx-12" value="places" style="shape=rhombus;perimeter=rhombusPerimeter;whiteSpace=wrap;html=1;align=center;" vertex="1" parent="1">
          <mxGeometry x="230" y="189" width="120" height="60" as="geometry" />
        </mxCell>
        <mxCell id="1EZGfPwogYZanTHr4nEx-13" value="" style="endArrow=none;html=1;rounded=0;entryX=0;entryY=0.5;entryDx=0;entryDy=0;" edge="1" parent="1" source="1EZGfPwogYZanTHr4nEx-16" target="1EZGfPwogYZanTHr4nEx-3">
          <mxGeometry relative="1" as="geometry">
            <mxPoint x="499" y="219.5" as="sourcePoint" />
            <mxPoint x="659" y="219.5" as="targetPoint" />
          </mxGeometry>
        </mxCell>
        <mxCell id="1EZGfPwogYZanTHr4nEx-14" value="1" style="resizable=0;html=1;whiteSpace=wrap;align=right;verticalAlign=bottom;" connectable="0" vertex="1" parent="1EZGfPwogYZanTHr4nEx-13">
          <mxGeometry x="1" relative="1" as="geometry" />
        </mxCell>
        <mxCell id="1EZGfPwogYZanTHr4nEx-15" value="1" style="text;html=1;align=center;verticalAlign=middle;resizable=0;points=[];autosize=1;strokeColor=none;fillColor=none;" vertex="1" parent="1">
          <mxGeometry x="491" y="196" width="30" height="30" as="geometry" />
        </mxCell>
        <mxCell id="1EZGfPwogYZanTHr4nEx-17" value="" style="endArrow=none;html=1;rounded=0;" edge="1" parent="1" target="1EZGfPwogYZanTHr4nEx-16">
          <mxGeometry relative="1" as="geometry">
            <mxPoint x="499" y="219.5" as="sourcePoint" />
            <mxPoint x="659" y="219.5" as="targetPoint" />
          </mxGeometry>
        </mxCell>
        <mxCell id="1EZGfPwogYZanTHr4nEx-16" value="Assigned to" style="shape=rhombus;perimeter=rhombusPerimeter;whiteSpace=wrap;html=1;align=center;" vertex="1" parent="1">
          <mxGeometry x="535" y="190" width="120" height="60" as="geometry" />
        </mxCell>
      </root>
    </mxGraphModel>
  </diagram>
</mxfile>
